# xmcd
#
# Track frame offsets:
#	182
#	15980
#	29060
#	43880
#	60377
#	73075
#	96775
#	106720
#	127462
#	143835
#
# Disc length: 2109 seconds
#
# Revision: 3
# Processed by: cddbd v1.5.2PL0 Copyright (c) Steve Scherf et al.
# Submitted via: audiograbber 1.83.01
#
DISCID=8d083b0a
DTITLE=Ray Stevens - Everything is Beautiful
DYEAR=1900
DGENRE=Oldies
TTITLE0=Everything Is Beautiful
TTITLE1=Misty
TTITLE2=The Streak
TTITLE3=Bridget The Midget (The Queen Of The Blues)
TTITLE4=A Mama And A Papa
TTITLE5=Moonlight Special
TTITLE6=Turn Your Radio On
TTITLE7=All My Trials
TTITLE8=Sunset Strip
TTITLE9=America, Communicate With Me
EXTD=
EXTT0=
EXTT1=
EXTT2=
EXTT3=
EXTT4=
EXTT5=
EXTT6=
EXTT7=
EXTT8=
EXTT9=
PLAYORDER=
